<svg width="86" height="100" viewBox="0 0 86 100" fill="none" xmlns="http://www.w3.org/2000/svg">
<path d="M85.9277 73.369C83.584 78.5744 82.4546 80.9012 79.44 85.4952C75.2196 91.915 69.2669 99.9313 61.913 99.9822C55.3658 100.042 53.676 95.7108 44.7851 95.7873C35.9027 95.8297 34.0515 100.067 27.4958 99.9992C20.1334 99.9313 14.5034 92.7132 10.283 86.302C-1.5206 68.3249 -2.76889 47.2483 4.52554 36.0391C9.68855 28.0908 17.8491 23.4203 25.5172 23.4203C33.3297 23.4203 38.2379 27.7087 44.6917 27.7087C50.9586 27.7087 54.7714 23.4118 63.8067 23.4118C70.634 23.4118 77.8521 27.1312 83.0151 33.551C66.1334 42.8071 68.8763 66.9152 85.9277 73.369ZM56.9453 16.2363C60.2316 12.0159 62.7282 6.06313 61.8196 0C56.4613 0.365147 50.1943 3.78733 46.5344 8.22004C43.2141 12.2621 40.4628 18.2573 41.5327 24.0572C47.3836 24.244 53.4382 20.7539 56.9453 16.2363Z" fill="black"/>
</svg>
