<svg width="100" height="100" viewBox="0 0 100 100" fill="none" xmlns="http://www.w3.org/2000/svg">
<path d="M50 0C36.7392 0 24.0215 5.26784 14.6447 14.6447C5.26784 24.0215 0 36.7392 0 50C0 63.2608 5.26784 75.9785 14.6447 85.3553C24.0215 94.7322 36.7392 100 50 100C63.2608 100 75.9785 94.7322 85.3553 85.3553C94.7322 75.9785 100 63.2608 100 50C100 36.7392 94.7322 24.0215 85.3553 14.6447C75.9785 5.26784 63.2608 0 50 0Z" fill="#3F51B5"/>
<path d="M63.42 50H55V80H42.5V50H35V40H42.5V33.975C42.505 25.205 46.1475 20 56.48 20H65V30H59.2825C55.26 30 55 31.5 55 34.3075V40H65L63.42 50Z" fill="white"/>
</svg>
