<svg width="100" height="100" viewBox="0 0 100 100" fill="none" xmlns="http://www.w3.org/2000/svg">
<path d="M99.0275 40.2075H95V40H50V60H78.2575C74.135 71.6425 63.0575 80 50 80C33.4325 80 20 66.5675 20 50C20 33.4325 33.4325 20 50 20C57.6475 20 64.605 22.885 69.9025 27.5975L84.045 13.455C75.115 5.1325 63.17 0 50 0C22.3875 0 0 22.3875 0 50C0 77.6125 22.3875 100 50 100C77.6125 100 100 77.6125 100 50C100 46.6475 99.655 43.375 99.0275 40.2075Z" fill="#FBC02D"/>
<path d="M5.76501 26.7275L22.1925 38.775C26.6375 27.77 37.4025 20 50 20C57.6475 20 64.605 22.885 69.9025 27.5975L84.045 13.455C75.115 5.1325 63.17 0 50 0C30.795 0 14.14 10.8425 5.76501 26.7275Z" fill="#E53935"/>
<path d="M50 99.9998C62.915 99.9998 74.65 95.0573 83.5225 87.0198L68.0475 73.9248C63.0275 77.7273 56.7875 79.9998 50 79.9998C36.995 79.9998 25.9525 71.7073 21.7925 60.1348L5.48749 72.6973C13.7625 88.8898 30.5675 99.9998 50 99.9998Z" fill="#4CAF50"/>
<path d="M99.0275 40.2075L98.9875 40H95H50V60H78.2575C76.2775 65.5925 72.68 70.415 68.04 73.9275L68.0475 73.9225L83.5225 87.0175C82.4275 88.0125 100 75 100 50C100 46.6475 99.655 43.375 99.0275 40.2075Z" fill="#1565C0"/>
</svg>
